<?xml version="1.0" standalone="no"?>
<!DOCTYPE svg PUBLIC "-//W3C//DTD SVG 20010904//EN"
 "http://www.w3.org/TR/2001/REC-SVG-20010904/DTD/svg10.dtd">
<svg version="1.0" xmlns="http://www.w3.org/2000/svg"
 width="1280.000000pt" height="1249.000000pt" viewBox="0 0 1280.000000 1249.000000"
 preserveAspectRatio="xMidYMid meet">
<g transform="translate(0.000000,1249.000000) scale(0.100000,-0.100000)"
fill="#000000" stroke="none">
<path d="M6570 12466 c-136 -48 -234 -110 -585 -371 -318 -237 -416 -282 -662
-305 -236 -23 -486 24 -980 184 -273 89 -360 106 -538 106 -469 0 -824 -222
-921 -576 -21 -79 -19 -211 5 -356 72 -417 261 -675 527 -720 90 -15 158 -4
659 102 601 128 711 144 990 144 211 1 292 -8 455 -51 150 -38 255 -109 352
-238 65 -86 76 -95 123 -105 l30 -6 3 -429 c2 -460 4 -445 -49 -445 -45 0
-162 -66 -342 -192 -328 -231 -357 -248 -497 -287 -124 -35 -231 -44 -396 -32
-135 10 -151 9 -179 -7 -73 -43 -99 -131 -99 -327 1 -154 16 -238 47 -260 28
-20 84 -35 176 -49 50 -7 77 -17 85 -28 7 -12 6 -70 -3 -197 -9 -128 -9 -191
-2 -219 9 -31 35 -61 127 -147 l117 -109 -8 -216 c-16 -494 -34 -837 -45 -875
-41 -136 -163 -326 -293 -458 -83 -83 -250 -218 -381 -306 -46 -32 -53 -34
-180 -41 -129 -8 -275 1 -345 20 -52 14 -113 55 -224 153 -112 98 -175 133
-267 148 -52 8 -69 7 -94 -5 -24 -12 -369 -38 -1556 -116 -839 -55 -1535 -100
-1546 -100 -21 0 -22 -3 -28 -252 -3 -139 -10 -680 -16 -1203 -5 -522 -15
-1131 -22 -1352 -6 -222 -9 -406 -5 -409 3 -4 134 -20 289 -35 156 -16 436
-45 623 -64 187 -19 785 -79 1330 -135 545 -55 1007 -102 1027 -105 37 -5 38
-5 44 33 5 32 16 45 87 98 169 126 280 177 507 232 183 45 269 56 425 56 139
-1 142 -1 520 -87 579 -131 1074 -235 1172 -247 112 -13 285 -13 449 0 266 21
401 42 869 135 659 132 1163 212 1606 256 176 17 435 7 534 -20 234 -64 412
-203 507 -393 75 -149 104 -265 143 -575 14 -109 32 -235 40 -280 23 -130 28
-325 17 -633 -16 -422 1 -564 69 -601 26 -13 158 -52 271 -79 275 -65 667
-103 847 -81 53 6 155 18 226 26 310 37 636 124 1001 266 168 66 161 60 184
169 28 130 -52 1219 -136 1860 -61 467 -120 752 -209 1004 -142 406 -269 631
-459 819 -615 607 -1676 1068 -2951 1282 -187 32 -289 66 -385 130 -174 116
-301 339 -372 657 -22 100 -23 116 -22 583 l1 480 94 84 c227 204 225 202 238
273 6 36 14 134 17 219 4 85 10 164 15 175 6 18 19 22 78 28 86 9 130 35 150
91 23 64 21 349 -3 450 -10 44 -22 88 -27 97 -25 47 -104 58 -359 49 l-115 -4
-181 60 c-329 110 -423 166 -587 350 -119 134 -195 208 -232 225 l-25 11 0
444 0 443 33 0 c48 1 70 18 129 100 98 137 218 213 401 254 367 83 644 61
1465 -118 384 -83 510 -102 590 -88 236 40 418 249 501 577 28 112 51 271 51
358 0 240 -159 475 -406 601 -157 80 -323 116 -529 116 -178 0 -265 -17 -538
-106 -262 -85 -486 -145 -632 -169 -119 -20 -363 -23 -450 -6 -192 39 -286 89
-595 320 -291 217 -420 298 -540 341 -100 35 -142 36 -230 6z"/>
</g>
</svg>
